<svg width="289" height="204" viewBox="0 0 289 204" fill="none" xmlns="http://www.w3.org/2000/svg">
<path fill-rule="evenodd" clip-rule="evenodd" d="M205.215 49.3315C206.687 48.832 208.224 48.4572 209.816 48.2213C224.098 46.1059 237.391 55.969 239.507 70.2512C240.36 76.0113 239.265 81.6105 236.717 86.3805C261.769 86.5345 283.655 104.928 287.44 130.479C291.62 158.703 272.129 184.973 243.905 189.153C229.927 191.223 216.428 187.488 205.855 179.761C193.307 190.912 175.061 199.35 154.01 202.468C121.469 207.288 91.6587 197.999 77.5939 180.716C75.6731 181.232 73.7024 181.643 71.6872 181.942C43.4629 186.122 17.1937 166.631 13.0132 138.406C8.83269 110.182 28.324 83.9129 56.5483 79.7325C61.1775 79.0468 65.7541 78.9979 70.1892 79.5199C72.5168 46.4649 97.5113 18.2934 131.645 13.2376C162.129 8.72237 190.982 23.9658 205.215 49.3315Z" fill="#ECECEC"/>
<path fill-rule="evenodd" clip-rule="evenodd" d="M192.766 36.8828C194.238 36.3832 195.775 36.0085 197.367 35.7726C211.65 33.6572 224.943 43.5203 227.058 57.8024C227.911 63.5626 226.816 69.1618 224.268 73.9317C249.32 74.0858 271.207 92.4797 274.991 118.03C279.172 146.255 259.68 172.524 231.456 176.704C217.478 178.775 203.98 175.039 193.406 167.312C180.858 178.464 162.612 186.901 141.561 190.019C109.02 194.839 79.21 185.55 65.1452 168.267C63.2244 168.783 61.2537 169.194 59.2384 169.493C31.0142 173.673 4.74494 154.182 0.564453 125.958C-3.61604 97.7335 15.8753 71.4642 44.0996 67.2837C48.7287 66.5981 53.3053 66.5492 57.7405 67.0712C60.0681 34.0161 85.0626 5.84463 119.196 0.788874C149.68 -3.72636 178.533 11.5171 192.766 36.8828Z" fill="white"/>
</svg>
