<svg width="434" height="320" viewBox="0 0 434 320" fill="none" xmlns="http://www.w3.org/2000/svg">
<path fill-rule="evenodd" clip-rule="evenodd" d="M311.808 78.0057C292.16 37.7399 250.82 10 203 10C136.174 10 82 64.1735 82 131C82 137.409 82.4983 143.702 83.4582 149.841C41.9397 155.694 10 191.367 10 234.5C10 281.72 48.2797 320 95.5 320C113.293 320 129.816 314.565 143.5 305.265C157.184 314.565 173.707 320 191.5 320C212.402 320 231.553 312.499 246.407 300.043C265.508 312.657 288.397 320 313 320C379.826 320 434 265.826 434 199C434 132.174 379.826 78 313 78C312.602 78 312.205 78.0019 311.808 78.0057Z" fill="#ECECEC"/>
<path fill-rule="evenodd" clip-rule="evenodd" d="M301.808 68.0057C282.16 27.7399 240.82 0 193 0C126.174 0 72 54.1735 72 121C72 127.409 72.4983 133.702 73.4582 139.841C31.9397 145.694 0 181.367 0 224.5C0 271.72 38.2797 310 85.5 310C103.293 310 119.816 304.565 133.5 295.265C147.184 304.565 163.707 310 181.5 310C202.402 310 221.553 302.499 236.407 290.043C255.508 302.657 278.397 310 303 310C369.826 310 424 255.826 424 189C424 122.174 369.826 68 303 68C302.602 68 302.205 68.0019 301.808 68.0057Z" fill="white"/>
</svg>
