<svg width="290" height="173" viewBox="0 0 290 173" fill="none" xmlns="http://www.w3.org/2000/svg">
<path fill-rule="evenodd" clip-rule="evenodd" d="M191.446 162.903C201.223 168.773 212.669 172.149 224.904 172.149C260.855 172.149 290 143.004 290 107.053C290 71.1015 260.855 41.9572 224.904 41.9572C218.73 41.9572 212.757 42.8167 207.097 44.4226C196.873 21.8627 174.157 6.16992 147.776 6.16992C121.455 6.16992 98.7825 21.7919 88.5247 44.2698C83.0281 42.7622 77.2409 41.9572 71.2657 41.9572C35.3143 41.9572 6.16992 71.1015 6.16992 107.053C6.16992 143.004 35.3143 172.149 71.2657 172.149C79.4443 172.149 87.2706 170.64 94.4816 167.887C106.819 170.64 120.209 172.149 134.202 172.149C155.134 172.149 174.717 168.773 191.446 162.903Z" fill="#ECECEC"/>
<path fill-rule="evenodd" clip-rule="evenodd" d="M185.276 156.733C195.053 162.604 206.5 165.979 218.734 165.979C254.685 165.979 283.83 136.834 283.83 100.883C283.83 64.9316 254.685 35.7872 218.734 35.7872C212.56 35.7872 206.587 36.6468 200.927 38.2527C190.703 15.6928 167.987 0 141.606 0C115.285 0 92.6126 15.622 82.3548 38.0999C76.8582 36.5923 71.071 35.7872 65.0957 35.7872C29.1444 35.7872 0 64.9316 0 100.883C0 136.834 29.1444 165.979 65.0957 165.979C73.2743 165.979 81.1006 164.47 88.3117 161.717C100.649 164.47 114.039 165.979 128.032 165.979C148.964 165.979 168.547 162.604 185.276 156.733Z" fill="white"/>
</svg>
