<svg width="385" height="253" viewBox="0 0 385 253" fill="none" xmlns="http://www.w3.org/2000/svg">
<path fill-rule="evenodd" clip-rule="evenodd" d="M118.936 223.913C111.043 225.919 102.649 227 93.9461 227C47.5839 227 10 196.332 10 158.5C10 120.668 47.5839 90 93.9461 90C95.044 90 96.137 90.0172 97.2247 90.0513C109.045 44.3236 158.777 10 218.333 10C286.692 10 342.108 55.2192 342.108 111C342.108 112.573 342.064 114.138 341.977 115.693C367.281 124.572 385 145.098 385 169C385 201.033 353.177 227 313.922 227C300.912 227 288.719 224.148 278.23 219.169C259.712 239.687 229.898 253 196.275 253C165.318 253 137.592 241.716 118.936 223.913Z" fill="#ECECEC"/>
<path fill-rule="evenodd" clip-rule="evenodd" d="M108.936 213.913C101.043 215.919 92.649 217 83.9461 217C37.5839 217 0 186.332 0 148.5C0 110.668 37.5839 80 83.9461 80C85.044 80 86.137 80.0172 87.2247 80.0513C99.0448 34.3236 148.777 0 208.333 0C276.692 0 332.108 45.2192 332.108 101C332.108 102.573 332.064 104.138 331.977 105.693C357.281 114.572 375 135.098 375 159C375 191.033 343.177 217 303.922 217C290.912 217 278.719 214.148 268.23 209.169C249.712 229.687 219.898 243 186.275 243C155.318 243 127.592 231.716 108.936 213.913Z" fill="white"/>
</svg>
