<svg width="411" height="235" viewBox="0 0 411 235" fill="none" xmlns="http://www.w3.org/2000/svg">
<path fill-rule="evenodd" clip-rule="evenodd" d="M256.358 54.475C246.313 28.4565 221.062 10 191.5 10C153.116 10 122 41.1162 122 79.5C122 82.0253 122.135 84.519 122.397 86.9746C112.021 81.8682 100.346 79 88 79C44.9218 79 10 113.922 10 157C10 200.078 44.9218 235 88 235C108.707 235 127.529 226.931 141.494 213.766C154.133 226.858 171.866 235 191.5 235C215.991 235 237.524 222.332 249.902 203.191C267.006 218.612 289.657 228 314.5 228C367.795 228 411 184.795 411 131.5C411 78.2045 367.795 35 314.5 35C292.667 35 272.528 42.2505 256.358 54.475Z" fill="#ECECEC"/>
<path fill-rule="evenodd" clip-rule="evenodd" d="M246.358 44.475C236.313 18.4565 211.062 0 181.5 0C143.116 0 112 31.1162 112 69.5C112 72.0253 112.135 74.519 112.397 76.9746C102.021 71.8682 90.3457 69 78 69C34.9218 69 0 103.922 0 147C0 190.078 34.9218 225 78 225C98.7067 225 117.529 216.931 131.494 203.766C144.133 216.858 161.866 225 181.5 225C205.991 225 227.524 212.332 239.902 193.191C257.006 208.612 279.657 218 304.5 218C357.795 218 401 174.795 401 121.5C401 68.2045 357.795 25 304.5 25C282.667 25 262.528 32.2505 246.358 44.475Z" fill="white"/>
</svg>
