<svg width="311" height="230" viewBox="0 0 311 230" fill="none" xmlns="http://www.w3.org/2000/svg">
<path fill-rule="evenodd" clip-rule="evenodd" d="M294 97C294 104.656 293.011 112.081 291.154 119.154C303.145 127.456 311 141.311 311 157C311 182.405 290.405 203 265 203C260.174 203 255.522 202.257 251.151 200.879C239.694 211.321 222.157 218 202.5 218C192.768 218 183.556 216.363 175.344 213.443C166.906 223.561 154.205 230 140 230C120.18 230 103.288 217.465 96.8183 199.89C94.1684 200.614 91.3793 201 88.5 201C71.103 201 57 186.897 57 169.5C57 152.103 71.103 138 88.5 138C88.6975 138 88.8946 138.002 89.0912 138.005C88.3768 134.784 88 131.436 88 128C88 107.115 101.918 89.4812 120.985 83.8671C127.316 42.0497 163.415 10 207 10C255.049 10 294 48.9512 294 97ZM44 201C44 210.389 36.3888 218 27 218C17.6112 218 10 210.389 10 201C10 191.611 17.6112 184 27 184C36.3888 184 44 191.611 44 201Z" fill="#ECECEC"/>
<path fill-rule="evenodd" clip-rule="evenodd" d="M284 87C284 94.6558 283.011 102.081 281.154 109.154C293.145 117.456 301 131.311 301 147C301 172.405 280.405 193 255 193C250.174 193 245.522 192.257 241.151 190.879C229.694 201.321 212.157 208 192.5 208C182.768 208 173.556 206.363 165.344 203.443C156.906 213.561 144.205 220 130 220C110.18 220 93.2876 207.465 86.8183 189.89C84.1684 190.614 81.3793 191 78.5 191C61.103 191 47 176.897 47 159.5C47 142.103 61.103 128 78.5 128C78.6975 128 78.8946 128.002 79.0912 128.005C78.3768 124.784 78 121.436 78 118C78 97.1152 91.918 79.4812 110.985 73.8671C117.316 32.0497 153.415 0 197 0C245.049 0 284 38.9512 284 87ZM34 191C34 200.389 26.3888 208 17 208C7.61116 208 0 200.389 0 191C0 181.611 7.61116 174 17 174C26.3888 174 34 181.611 34 191Z" fill="white"/>
</svg>
