<svg xmlns="http://www.w3.org/2000/svg" xmlns:xlink="http://www.w3.org/1999/xlink" width="1762" height="120" viewBox="0 0 1762 120">
  <defs>
    <clipPath id="clip-UI_TEXTENTRY">
      <rect width="1762" height="120"/>
    </clipPath>
  </defs>
  <g id="UI_TEXTENTRY" clip-path="url(#clip-UI_TEXTENTRY)">
    <rect width="1762" height="120" fill="#fff"/>
    <g id="UI_TEXTENTRY-2" data-name="UI_TEXTENTRY">
      <g id="bg_back" fill="#97714a" stroke="#d3bf8f" stroke-width="6">
        <rect width="1762" height="120" rx="11" stroke="none"/>
        <rect x="3" y="3" width="1756" height="114" rx="8" fill="none"/>
      </g>
      <rect id="bg_back-2" data-name="bg_back" width="1736" height="92" transform="translate(13 14)" fill="#d3bf8f"/>
      <g id="Group_2" data-name="Group 2">
        <path id="Path_1" data-name="Path 1" d="M27,12.333l11.667,6,12.333-6Z" fill="#97714a"/>
        <path id="Path_2" data-name="Path 2" d="M27,12.333l11.667,6,12.333-6Z" transform="translate(575 2)" fill="#97714a"/>
        <path id="Path_3" data-name="Path 3" d="M27,12.333l11.667,6,12.333-6Z" transform="translate(1201 -1)" fill="#97714a"/>
        <path id="Path_4" data-name="Path 4" d="M27,12.333l11.667,6,12.333-6Z" transform="translate(1623 2)" fill="#97714a"/>
        <path id="Path_5" data-name="Path 5" d="M27,12.333l11.667,6,12.333-6Z" transform="translate(1764.333 33.333) rotate(90)" fill="#97714a"/>
        <path id="Path_6" data-name="Path 6" d="M27,12.333l11.667,6,12.333-6Z" transform="translate(1762 118.666) rotate(180)" fill="#97714a"/>
        <path id="Path_7" data-name="Path 7" d="M27,12.333l11.667,6,12.333-6Z" transform="translate(1544 121.666) rotate(180)" fill="#97714a"/>
        <path id="Path_8" data-name="Path 8" d="M27,12.333l11.667,6,12.333-6Z" transform="translate(1264 118.667) rotate(180)" fill="#97714a"/>
        <path id="Path_9" data-name="Path 9" d="M27,12.333l11.667,6,12.333-6Z" transform="translate(852 121.667) rotate(180)" fill="#97714a"/>
        <path id="Path_10" data-name="Path 10" d="M27,12.333l11.667,6,12.333-6Z" transform="translate(533 118.667) rotate(180)" fill="#97714a"/>
        <path id="Path_11" data-name="Path 11" d="M27,12.333l11.667,6,12.333-6Z" transform="translate(145 121.667) rotate(180)" fill="#97714a"/>
        <path id="Path_12" data-name="Path 12" d="M27,12.333l11.667,6,12.333-6Z" transform="translate(-2.333 121.333) rotate(-90)" fill="#97714a"/>
      </g>
    </g>
  </g>
</svg>
