<svg width="8000" height="372" viewBox="0 0 8000 372" fill="none" xmlns="http://www.w3.org/2000/svg">
<path d="M2638.32 5.4458C2683.47 33.6807 2736.83 50 2794 50C2848.64 50 2899.8 35.0925 2943.64 9.1228C2990.75 41.23 3047.69 60 3109 60C3172.38 60 3231.07 39.9468 3279.08 5.83936C3332.12 57.896 3404.81 90 3485 90C3557.34 90 3623.57 63.8748 3674.79 20.5449C3718.08 45.636 3768.36 60 3822 60C3888.91 60 3950.59 37.6511 4000 0.0112305V0.731934C4053.43 55.7878 4128.22 90 4211 90C4287.58 90 4357.33 60.7192 4409.65 12.7422C4452.05 36.4727 4500.95 50 4553 50C4609.4 50 4662.09 34.1191 4706.84 6.58545C4759.82 58.2024 4832.19 90 4912 90C4993.98 90 5068.12 56.4478 5121.44 2.32642C5167.6 32.4751 5222.75 50 5282 50C5341.51 50 5396.88 32.3208 5443.17 1.92822C5496.52 56.283 5570.82 90 5653 90C5735.12 90 5809.37 56.3342 5862.71 2.052C5911.66 38.4575 5972.31 60 6038 60C6104.91 60 6166.6 37.6465 6216.01 0H6220.29C6273.77 55.4846 6348.85 90 6432 90C6512.39 90 6585.25 57.7339 6638.32 5.4458C6683.47 33.6807 6736.83 50 6794 50C6848.64 50 6899.8 35.0925 6943.64 9.1228C6990.75 41.23 7047.69 60 7109 60C7172.38 60 7231.07 39.9468 7279.08 5.83936C7332.12 57.896 7404.81 90 7485 90C7557.34 90 7623.57 63.8748 7674.79 20.5449C7718.08 45.636 7768.36 60 7822 60C7888.91 60 7950.59 37.6511 8000 0.0112305V372H0V0.731934C53.4304 55.7878 128.22 90 211 90C287.582 90 357.326 60.7192 409.646 12.7422C452.055 36.4727 500.948 50 553 50C609.399 50 662.089 34.1191 706.842 6.58545C759.815 58.2024 832.194 90 912 90C993.978 90 1068.12 56.4478 1121.44 2.32642C1167.6 32.4751 1222.75 50 1282 50C1341.51 50 1396.88 32.3208 1443.17 1.92822C1496.52 56.283 1570.82 90 1653 90C1735.12 90 1809.37 56.3342 1862.71 2.052C1911.66 38.4575 1972.31 60 2038 60C2104.91 60 2166.6 37.6465 2216.01 0H2220.29C2273.77 55.4846 2348.85 90 2432 90C2512.39 90 2585.25 57.7339 2638.32 5.4458Z" fill="url(#paint0_linear)"/>
<defs>
<linearGradient id="paint0_linear" x1="6000" y1="0" x2="6000" y2="372" gradientUnits="userSpaceOnUse">
<stop stop-color="#02ACF1"/>
<stop offset="1" stop-color="#3477B4"/>
</linearGradient>
</defs>
</svg>
