<svg width="8000" height="372" viewBox="0 0 8000 372" fill="none" xmlns="http://www.w3.org/2000/svg">
<path d="M1361.68 5.44604C1316.53 33.6807 1263.17 50 1206 50C1151.36 50 1100.2 35.0925 1056.36 9.1228C1009.25 41.2302 952.315 60 891 60C827.624 60 768.931 39.947 720.921 5.8396C667.88 57.896 595.189 90 515 90C442.662 90 376.426 63.8748 325.213 20.5449C281.921 45.636 231.638 60 178 60C111.094 60 49.408 37.6511 0 0.0112305V372H8000V0.731934C7946.57 55.7881 7871.78 90 7789 90C7712.42 90 7642.67 60.719 7590.36 12.7419C7547.95 36.4727 7499.05 50 7447 50C7390.6 50 7337.91 34.1191 7293.16 6.58545C7240.18 58.2024 7167.81 90 7088 90C7006.02 90 6931.88 56.4478 6878.56 2.32642C6832.4 32.4751 6777.25 50 6718 50C6658.49 50 6603.12 32.3206 6556.83 1.92798C6503.48 56.283 6429.18 90 6347 90C6264.88 90 6190.63 56.334 6137.29 2.05176C6088.34 38.4573 6027.69 60 5962 60C5895.09 60 5833.4 37.6467 5783.99 0H5779.71C5726.23 55.4846 5651.15 90 5568 90C5487.61 90 5414.75 57.7341 5361.68 5.44604C5316.53 33.6807 5263.17 50 5206 50C5151.36 50 5100.2 35.0925 5056.36 9.1228C5009.25 41.2302 4952.31 60 4891 60C4827.62 60 4768.93 39.947 4720.92 5.8396C4667.88 57.896 4595.19 90 4515 90C4442.66 90 4376.43 63.8748 4325.21 20.5449C4281.92 45.636 4231.64 60 4178 60C4111.09 60 4049.41 37.6511 4000 0.0112305V0.731934C3946.57 55.7881 3871.78 90 3789 90C3712.42 90 3642.67 60.719 3590.35 12.7419C3547.95 36.4727 3499.05 50 3447 50C3390.6 50 3337.91 34.1191 3293.16 6.58545C3240.18 58.2024 3167.81 90 3088 90C3006.02 90 2931.88 56.4478 2878.56 2.32642C2832.4 32.4751 2777.25 50 2718 50C2658.49 50 2603.12 32.3206 2556.83 1.92798C2503.48 56.283 2429.18 90 2347 90C2264.88 90 2190.63 56.334 2137.29 2.05176C2088.34 38.4573 2027.69 60 1962 60C1895.09 60 1833.4 37.6467 1783.99 0H1779.71C1726.23 55.4846 1651.15 90 1568 90C1487.61 90 1414.75 57.7341 1361.68 5.44604Z" fill="url(#paint0_linear)"/>
<defs>
<linearGradient id="paint0_linear" x1="6000" y1="0" x2="6000" y2="372" gradientUnits="userSpaceOnUse">
<stop stop-color="#3477B4"/>
<stop offset="1" stop-color="#00427F"/>
</linearGradient>
</defs>
</svg>
